<svg version="1.2" xmlns="http://www.w3.org/2000/svg" viewBox="0 0 1680 1489" width="7200" height="6381">
	<title>vecteezy_unique-vector-realistic-phone-handset-speech-bubble-3d-icon_8147551-ai</title>
	<defs>
		<linearGradient id="g1" x1="1421.8" y1="1204.6" x2="556" y2="882.3" gradientUnits="userSpaceOnUse">
			<stop offset="0" stop-color="#a8a8a8"/>
			<stop offset="1" stop-color="#ffffff"/>
		</linearGradient>
		<linearGradient id="g2" x1="518.2" y1="1134.1" x2="825.9" y2="1122.5" gradientUnits="userSpaceOnUse">
			<stop offset="0" stop-color="#990000"/>
			<stop offset="1" stop-color="#ac5e5e"/>
		</linearGradient>
		<linearGradient id="g3" x1="419.2" y1="1022.2" x2="492.5" y2="1050.5" gradientUnits="userSpaceOnUse">
			<stop offset="0" stop-color="#990000"/>
			<stop offset="1" stop-color="#985454"/>
		</linearGradient>
		<linearGradient id="g4" x1="835.3" y1="396.2" x2="897.5" y2="410.5" gradientUnits="userSpaceOnUse">
			<stop offset="0" stop-color="#990000"/>
			<stop offset="1" stop-color="#bf5151"/>
		</linearGradient>
	</defs>
	<style>
		.s0 { fill: #1c8cb4 } 
		.s1 { fill: #a8a8a8 } 
		.s2 { fill: url(#g1) } 
		.s3 { fill: none;stroke: #373435;stroke-width: 6.9 } 
		.s4 { fill: url(#g2) } 
		.s5 { fill: url(#g3) } 
		.s6 { fill: url(#g4) } 
	</style>
	<g id="Layer 1">
		<g id="&lt;Group&gt;">
			<g id="&lt;Group&gt;">
				<path id="&lt;Path&gt;" class="s0" d="m223 965.4q3.5 7 7.2 13.9c-2-4.9-4.5-9.5-7.2-13.9z"/>
			</g>
			<g id="&lt;Group&gt;">
				<path id="&lt;Path&gt;" class="s1" d="m594.9 1398.6l16-4.4c-5.5 1-10.8 2.5-16 4.4z"/>
			</g>
			<g id="&lt;Group&gt;">
				<path id="&lt;Mesh&gt;" class="s2" d="m1594.8 986c-21.8 40.8-47.5 79.8-76.5 116.6-28.8 36.4-60.8 70.6-95.7 102.1-51.3 46.3-108.7 86.7-170.6 119.9-62 33.2-128.6 59.1-198.2 76.3-70.2 17.4-143 26-215.3 24.2-73.5-1.8-144.5-15.8-212-39.5-20.8-7.2-41.2-15.4-61.3-24.4q-3.6-1.7-7.2-3.3c-11.5-4.8-24.2-7.5-37.5-7.5q-9.1 0-17.8 1.6c-5.5 1-10.9 2.5-16 4.4q-33.8 9.2-67.5 18.4c18.4-50.5 35.5-106.5 51.8-162.5 15.8-54.3 31.6-108.8 46-163.5 14.4-55.3 26-111.1 39.4-166.6 35.7-8.9 72.9-20.8 110.1-21.5 40.3-0.9 78.8 15.3 118.1 21.9 77.5 13 155.9 24.2 234.2 30.4 7.4-4.5 13.4-4 19.3-3.6 72.5 4.6 144 9 211.7 5.1 75.7-4.3 147.1-11.6 213.2-20.8 66.8-9.9 129.7-21.4 185.6-36.2-13.7 44.4-31.8 87.4-53.8 128.5zm45.5-537.7c17.1 42.1 28.8 86 34.6 131.3q2.3 17.5 3.4 35.2c2.1 35.6 1.4 70.8-1.9 105.4-4.6 46.9-14 92.8-27.8 137.3-55.9 14.8-118.8 26.3-185.6 36.2-66.1 9.2-137.5 16.5-213.2 20.8-67.7 3.9-139.2-0.5-211.7-5.1-5.9-0.4-11.9-0.9-19.3 3.6-78.3-6.2-156.7-17.4-234.2-30.4-39.3-6.6-77.8-22.8-118.1-21.9-37.2 0.7-74.4 12.6-110.1 21.5 13.2-56.1-16.7-112.8-30.8-165.7-14.9-56.2-26.9-115.1-34.4-168.4-8.1-57.2-11.9-115.3-10.5-173.1 1.5-59.8 8.6-119.7 19.6-175.9 77.3-20.9 153.1-30.4 233.2-31.4 80.6-3.5 159.8 6.5 240.1 6 74.3-0.5 151.9 15.1 224.7 29.1 70.1 11.6 143.8 32 204.8 51.5 61.3 18.9 120.5 48.8 170.8 73.6 27.1 38 49.4 78.3 66.4 120.4zm-66.4-120.4c-50.3-24.8-109.5-54.7-170.8-73.6-61-19.5-134.7-39.9-204.8-51.5-72.8-14-150.4-29.6-224.7-29.1-80.3 0.5-159.5-9.5-240.1-6-80.1 1-155.9 10.5-233.2 31.4 10.9-56.1 25.7-108.5 42.5-153 64.9-19.9 134.1-33.7 206.1-40.6 34.7-3.4 70-5.1 105.9-5.1 36.1 0 71.5 1.8 106.1 5.1 68.7 6.7 134.2 19.8 195.8 38.4 62.8 19 121.5 43.8 175.2 73.4 54.4 30.1 103.7 65.1 146.9 104.3 36.1 32.8 68 68.4 95.1 106.3zm-1056.9 720.9c-14.4 54.7-30.2 109.2-46 163.5-16.3 56-33.4 112-51.8 162.5q-68.3 18.5-136.6 37.1-36.5 9.9-73 19.9-104.8 28.5-209.6 57 21.7-82.3 43.5-164.6 15.6-59.2 31.2-118.5 6.1-23 12.2-46 19.6-74.5 39.3-149 0-0.3 0.1-0.6c1.4-5 2.6-9.9 3.3-15 65.1-15.6 137.9-31.1 206.8-59.3 71-29 146.1-35.3 220-53.6-13.4 55.5-25 111.3-39.4 166.6zm-36.3-673.8c-1.4 57.8 2.4 115.9 10.5 173.1 7.5 53.3 19.5 112.2 34.4 168.4 14.1 52.9 44 109.6 30.8 165.7-73.9 18.3-149 24.6-220 53.6-68.9 28.2-141.7 43.7-206.8 59.3 2.8-19.6 0.2-39.8-7.7-58-2-4.8-4.5-9.4-7.2-13.9-15.6-30.4-29.2-61.1-40.6-91.8-21-56-34.7-111.9-40.1-165.3-1.8-17.4-2.7-34.5-2.7-51.3 0-37.4 4.5-74.2 13.1-109.8 12.5-51.4 33.5-100.6 61.9-146.7 53.4-31.7 121.8-57.5 182.7-90.2 66.6-35.8 139-49.4 211.3-69-11 56.2-18.1 116.1-19.6 175.9zm19.6-175.9c-72.3 19.6-144.7 33.2-211.3 69-60.9 32.7-129.3 58.5-182.7 90.2 28.5-46.1 64.3-89.2 106.5-128.3 43.3-40.2 93.4-76.2 148.8-107.2 55.4-31 116.2-56.9 181.2-76.7-16.8 44.5-31.6 96.9-42.5 153z"/>
			</g>
			<g id="&lt;Group&gt;">
				<path id="&lt;Path&gt;" class="s3" d=""/>
				<path id="&lt;Mesh&gt;" class="s4" d="m580.9 1185.6c-23.4-15.1-45.1-32.5-65.3-51.6-8.4-9.3-10.8-22.8-4.9-34.1q1.2-2.4 2.9-4.5 3.5-3.1 6.9-6.3 62.4-56.9 124.9-113.7c19.1 22.3 41 42.7 63.1 62 21.6 18.8 42.5 34.9 62.1 48.9-25.7 23.4-51.9 46.3-78.2 69-13.3 11.5-26.7 23-40.1 34.4-6.7 7.9-13.1 20.6-6.1 30.2-20.9-8.6-42.9-19.8-65.3-34.3zm65.3 34.3c-7-9.6-0.6-22.3 6.1-30.2 13.4-11.4 26.8-22.9 40.1-34.4 26.3-22.7 52.5-45.6 78.2-69 19.6 14 37.9 25.8 54.3 36-23.3 20.9-47.5 40.7-71.8 60.3-12 9.7-23.6 19.9-35.9 29.1-7 5.2-17.8 17.9-12.6 27.3-17.9-4.3-37.6-10.4-58.4-19.1zm137.1 29c-7.4 0-18.1-0.3-31.5-1.7-13.4-1.4-29.4-3.9-47.2-8.2-5.2-9.4 5.6-22.1 12.6-27.3 12.3-9.2 23.9-19.4 35.9-29.1 24.3-19.6 48.5-39.4 71.8-60.3 16.3 10.2 30.8 18.8 42.5 26.1 11.8 7.4 21 13.7 26.9 19.2 5.9 5.6 8.5 10.5 7.2 15.2-34.8 27.2-70.6 49.4-106.7 65.7 0 0-4.1 0.3-11.5 0.4zm-74.8-211.5c-22.1-19.3-44-39.7-63.1-62q42.2-38.5 84.4-76.9 1.7-1.6 3.4-3.2c9.2-7.1 22.5-8.5 33.9-2.5 0.4 0.2 0.9 0.4 1.3 0.7q3.3 2.6 6.5 5c10.3 7.5 20.9 13 31.6 16.8 16.5 20.4 36.6 39.1 56.1 56.6 18.6 16.7 36.2 30.3 52.3 41.7-12.1-2.1-22.5-3-34.2-7.2-12.1-4.3-23.9 3.1-32.6 11-25.5 23.4-51.7 45.9-77.5 68.9-19.6-14-40.5-30.1-62.1-48.9zm62.1 48.9c25.8-23 52-45.5 77.5-68.9 8.7-7.9 20.5-15.3 32.6-11 11.7 4.2 22.1 5.1 34.2 7.2 16 11.4 30.6 20.6 43.1 28.1-10.7-0.4-19.8 2.9-30.6 0.5-11.5-2.5-21.9 6.9-29.7 14.1-24.1 22.2-48.2 44.4-72.8 66-16.4-10.2-34.7-22-54.3-36zm123.7 81.3c-5.9-5.5-15.1-11.8-26.9-19.2-11.7-7.3-26.2-15.9-42.5-26.1 24.6-21.6 48.7-43.8 72.8-66 7.8-7.2 18.2-16.6 29.7-14.1 10.8 2.4 19.9-0.9 30.6-0.5 12.5 7.6 23 13.6 31 18.9 8 5.2 13.4 9.6 15.9 13.9 2.5 4.3 2 8.5-2 13.4-32.5 35.8-66.5 67.8-101.4 94.9 1.3-4.7-1.3-9.6-7.2-15.2zm-31.7-195.7c-19.5-17.5-39.6-36.2-56.1-56.6 43.1 15.3 88.1 1.8 128.8-28.5 17.3 15.8 36.6 31.4 56 44.8 17.5 12.1 32.8 20.2 45.9 25.6-38.6 32.6-81.1 63.9-122.3 56.4-16.1-11.4-33.7-25-52.3-41.7zm52.3 41.7c41.2 7.5 83.7-23.8 122.3-56.4 13.1 5.4 24.1 8.1 32.9 9.2-37 34.1-72.2 77-112.1 75.3-12.5-7.5-27.1-16.7-43.1-28.1zm90 60.9c-2.5-4.3-7.9-8.7-15.9-13.9-8-5.3-18.5-11.3-31-18.9 39.9 1.7 75.1-41.2 112.1-75.3 8.9 1.2 15.7 0.9 20.5 0.4 4.7-0.6 7.4-1.4 8.2-1.1 0.7 0.2-0.5 1.4-3.7 4.9-28.8 42.1-59.8 81.6-92.2 117.3 4-4.9 4.5-9.1 2-13.4zm-13.6-142.9c-19.4-13.4-38.7-29-56-44.8 42.6-31.7 80.5-81.8 106.5-136.5 19.5 12.2 38 26.3 57.3 39.1 17.2 11.5 30.8 19.8 41.6 26-24.9 53.9-63.1 108.2-103.5 141.8-13.1-5.4-28.4-13.5-45.9-25.6zm45.9 25.6c40.4-33.6 78.6-87.9 103.5-141.8 10.8 6.1 18.8 10.1 24.5 12.7-24.8 52.7-56.4 103.4-95.1 138.3-8.8-1.1-19.8-3.8-32.9-9.2zm61.6 8.5c-0.8-0.3-3.5 0.5-8.2 1.1-4.8 0.5-11.6 0.8-20.5-0.4 38.7-34.9 70.3-85.6 95.1-138.3 5.7 2.6 9.2 3.8 11.2 4.5 1.9 0.7 2.3 1 1.9 1.6-0.5 0.6-1.9 1.5-3.5 3.7-24.1 46-50.8 90.7-79.7 132.7 3.2-3.5 4.4-4.7 3.7-4.9zm0.3-176.3c-19.3-12.8-37.8-26.9-57.3-39.1 27.5-57.7 41.7-120.7 34.3-172.6 22.9 7.8 45.1 22.1 65.9 34.2 19.9 11.5 35.4 21.7 47.5 30.6 4 52.1-21.6 117.1-48.8 172.9-10.8-6.2-24.4-14.5-41.6-26zm41.6 26c27.2-55.8 52.8-120.8 48.8-172.9 12 8.9 20.7 16.6 27 23.2 0.6 51.4-24.6 108.1-51.3 162.4-5.7-2.6-13.7-6.6-24.5-12.7zm37.6 18.8c0.4-0.6 0-0.9-1.9-1.6-2-0.7-5.5-1.9-11.2-4.5 26.7-54.3 51.9-111 51.3-162.4 6.3 6.5 10.3 11.9 13 16.3 2.6 4.4 4 7.7 5.1 10.1 1.1 2.4 1.9 3.9 3.5 4.6-18 47.7-39.3 95.2-63.3 141.2 1.6-2.2 3-3.1 3.5-3.7zm-36.3-222.3c-20.8-12.1-43-26.4-65.9-34.2-6.7-47.3-31.3-85.5-80.3-102.5q-3.8-1.3-7.8-2.5c-0.4-0.2-0.9-0.4-1.3-0.6-7.5-4-12.9-10.4-15.5-17.7 29.4 4.4 58.4 15.2 86.6 24.4 28.5 9.4 52.9 18.2 74.2 26.4 6.3 14.3 11.4 20.8 23.9 29.7 10.3 7.4 17.8 17.7 22.5 29.4 9.9 24.5 9.6 52.2 11.1 78.2-12.1-8.9-27.6-19.1-47.5-30.6zm47.5 30.6c-1.5-26-1.2-53.7-11.1-78.2-4.7-11.7-12.2-22-22.5-29.4-12.5-8.9-17.6-15.4-23.9-29.7 21.3 8.2 39.4 15.7 55 22.2 3 8.5 2.4 15.7 7 20.6 0.3 0.2 0.2 0.6 0.5 0.9 1.7 1.1 1.4 3.2 3 4.3 30.6 23.5 19.2 67.9 19 112.5-6.3-6.6-15-14.3-27-23.2zm45.1 49.6c-1.1-2.4-2.5-5.7-5.1-10.1-2.7-4.4-6.7-9.8-13-16.3 0.2-44.6 11.6-89-19-112.5-1.6-1.1-1.3-3.2-3-4.3-0.3-0.3-0.2-0.7-0.5-0.9-4.6-4.9-4-12.1-7-20.6 15.7 6.5 28.8 12.1 40.3 16.5 11.5 4.4 21.2 7.6 30 9.3 8.8 1.8 16.7 2.1 24.3 0.7-10.8 47.1-25.5 95.1-43.5 142.8-1.6-0.7-2.4-2.2-3.5-4.6zm-176.8-213.3c-28.2-9.2-57.2-20-86.6-24.4-1.4-3.7-2-7.6-1.8-11.6q0.3-2.3 0.6-4.6 10.6-80.6 21.2-161.2c28.2 5.8 55.6 14.8 82.6 24.6 28.4 10.3 53.6 21.1 75.9 31.7-7.3 51.6-11 103.7-17.7 156-0.2 1.5-0.4 3-0.6 4.5-0.2 3.8-0.9 7.9 0.6 11.4-21.3-8.2-45.7-17-74.2-26.4zm74.2 26.4c-1.5-3.5-0.8-7.6-0.6-11.4 0.2-1.5 0.4-3 0.6-4.5 6.7-52.3 10.4-104.4 17.7-156 22.3 10.7 41.7 21.2 58.5 31-6.4 49.8-13.1 97.1-20.2 147.9-0.2 1.4-0.5 2.8-0.7 4.3-0.3 3.7-1.5 7.4-0.3 10.9-15.6-6.5-33.7-14-55-22.2zm125.3 48c-8.8-1.7-18.5-4.9-30-9.3-11.5-4.4-24.6-10-40.3-16.5-1.2-3.5 0-7.2 0.3-10.9 0.2-1.5 0.5-2.9 0.7-4.3 7.1-50.8 13.8-98.1 20.2-147.9 16.9 9.7 31.2 18.8 43.4 26.5 12.2 7.7 22.2 14.1 30.4 18.6 8.2 4.5 14.6 7.1 19.5 7.1-2.3 44.2-9.1 90.4-19.9 137.4-7.6 1.4-15.5 1.1-24.3-0.7zm-183.5-251.6c-27-9.8-54.4-18.8-82.6-24.6q7.8-59.8 15.6-119.5 0.6-4.6 1.3-9.3 0.7-2.5 2-4.9c5.8-11.3 18.3-17.1 30.7-15.4 1.7 0.3 3.3 0.6 4.9 1 29.7 6.4 56.4 15.1 80.3 25.3 23.9 10.2 45 21.8 63.4 33.8-26.3-2.5-27.1 39.4-29.2 55.9-3.8 29.7-6.3 59.7-10.5 89.4-22.3-10.6-47.5-21.4-75.9-31.7zm75.9 31.7c4.2-29.7 6.7-59.7 10.5-89.4 2.1-16.5 2.9-58.4 29.2-55.9 18.4 12.1 34.2 24.6 47.5 36.5-21.3 0.5-20 47.5-21.2 60.6-2.5 26.4-4.1 52.9-7.5 79.2-16.8-9.8-36.2-20.3-58.5-31zm132.3 76.1c-8.2-4.5-18.2-10.9-30.4-18.6-12.2-7.7-26.5-16.8-43.4-26.5 3.4-26.3 5-52.8 7.5-79.2 1.2-13.1-0.1-60.1 21.2-60.6 13.3 12 24.1 23.4 32.6 33.3 8.5 9.9 14.7 18.4 18.8 24.3 4.1 5.9 6.1 9.4 6.1 9.4 7.3 38.8 9.5 80.9 7.1 125-4.9 0-11.3-2.6-19.5-7.1z"/>
				<path id="&lt;Mesh&gt;" class="s5" d="m444.2 1056.1q-7-8.2-13.6-16.8-6.7-8.5-13-17.3c-5.1-8.8-5.9-19.5-1-28.9 1-1.9 2.2-3.7 3.6-5.3 6 5.1 12 10.1 18 15.1 5.8 4.8 11.8 9.9 17.9 15.2 6 5.3 11.8 10.7 17.6 16.1-8.3 11.1-13.6 24.5-15.2 38.3q-7.3-8.1-14.3-16.4zm14.3 16.4c1.6-13.8 6.9-27.2 15.2-38.3q8.7 8.2 17.6 16.2c-8.4 11.2-13.9 24.6-18 37.9q-7.5-7.8-14.8-15.8zm30.6 6.5q-6.5 6-13.1 12-1.3-1.3-2.7-2.7c4.1-13.3 9.6-26.7 18-37.9q2.8 2.6 5.8 5.1 7.2-3.4 14.5-6.9 10.8-5.1 21.5-10.2-14 13-28.1 25.9-7.9 7.4-15.9 14.7zm-33-60.9c-6.1-5.3-12.1-10.4-17.9-15.2-6-5-12-10-18-15.1q1-1.2 2.2-2.2 12.7-11.4 25.5-22.8c5.9 4.4 12.9 7.5 19 11.6 5.9 4 12.3 7.7 18.6 12.4 6.1 4.5 11.7 9.8 17.2 15-9.8 10.6-20 21.2-29 32.4-5.8-5.4-11.6-10.8-17.6-16.1zm17.6 16.1c9-11.2 19.2-21.8 29-32.4 5.6 5.2 11.2 10.4 16.9 15.5-9.5 10.9-19.7 21.5-28.3 33.1q-8.9-8-17.6-16.2zm37.9 14.4q-7.3 3.5-14.5 6.9-3-2.5-5.8-5.1c8.6-11.6 18.8-22.2 28.3-33.1q3.2 3 6.4 5.8c4.6-1.8 9.1-3.1 13.5-4.2 7.2-1.9 14.4-3.5 21.7-6.4q-14 12.9-28.1 25.9-10.7 5.1-21.5 10.2zm-26.1-61.8c-6.3-4.7-12.7-8.4-18.6-12.4-6.1-4.1-13.1-7.2-19-11.6q14-12.4 28.2-25c5.4 3.5 13.4 4.8 19.4 7.8 6.1 3.1 12.9 5.5 19.4 9.5 6.3 4 11.8 9.3 17.2 14.4-10 10.5-19.7 21.6-29.4 32.3-5.5-5.2-11.1-10.5-17.2-15zm17.2 15c9.7-10.7 19.4-21.8 29.4-32.3 5.4 5.1 10.9 10.2 16.4 15.3-9.5 10.9-19.3 21.8-28.9 32.5-5.7-5.1-11.3-10.3-16.9-15.5zm36.8 17.1c-4.4 1.1-8.9 2.4-13.5 4.2q-3.2-2.8-6.4-5.8c9.6-10.7 19.4-21.6 28.9-32.5q3.4 3.1 6.8 6.1c4.3-1.4 8.5-1.8 12.7-2 7.1-0.4 14 0 21.3-2.3q-14 12.9-28.1 25.9c-7.3 2.9-14.5 4.5-21.7 6.4zm-24.6-63.8c-6.5-4-13.3-6.4-19.4-9.5-6-3-14-4.3-19.4-7.8q14.1-12.5 28.3-25.1c5 2.4 13.8 1.6 19.6 3.6 6.3 2.1 13.5 3.2 20.2 6.9 6.5 3.5 12 8.8 17.3 13.8-10 10.6-19.7 21.7-29.4 32.5-5.4-5.1-10.9-10.4-17.2-14.4zm17.2 14.4c9.7-10.8 19.4-21.9 29.4-32.5 5.3 5.1 10.8 10.3 16.3 15.4-9.8 10.7-19.6 21.6-29.3 32.4-5.5-5.1-11-10.2-16.4-15.3zm35.9 19.4c-4.2 0.2-8.4 0.6-12.7 2q-3.4-3-6.8-6.1c9.7-10.8 19.5-21.7 29.3-32.4q3.4 3.2 6.8 6.3c4.3-0.9 8.3-0.5 12.2 0.2 6.8 1.1 13.4 3.3 20.7 1.8q-14.1 12.9-28.2 25.9c-7.3 2.3-14.2 1.9-21.3 2.3zm-23.8-65.7c-6.7-3.7-13.9-4.8-20.2-6.9-5.8-2-14.6-1.2-19.6-3.6q14.2-12.6 28.4-25.3c5 1.5 13.8-1.7 19.7-0.8 6.4 1 13.8 1.1 20.8 4.3 6.8 3.2 12.3 8.4 17.6 13.6-9.8 10.7-19.6 21.8-29.4 32.5-5.3-5-10.8-10.3-17.3-13.8zm17.3 13.8c9.8-10.7 19.6-21.8 29.4-32.5 5.4 5.1 10.9 10.4 16.3 15.6-9.7 10.7-19.6 21.7-29.4 32.3-5.5-5.1-11-10.3-16.3-15.4zm35.3 21.9c-3.9-0.7-7.9-1.1-12.2-0.2q-3.4-3.1-6.8-6.3c9.8-10.6 19.7-21.6 29.4-32.3q3.5 3.3 6.9 6.4c4.1-0.2 7.9 0.9 11.7 2.4 6.4 2.6 12.7 6.2 19.7 5.9q-14 12.9-28 25.9c-7.3 1.5-13.9-0.7-20.7-1.8zm-23.5-68c-7-3.2-14.4-3.3-20.8-4.3-5.9-0.9-14.7 2.3-19.7 0.8q14.3-12.6 28.5-25.2c6.2 0 13-5.2 19.6-5.5 6.5-0.4 14.1-1 21.3 1.8 7.2 2.9 12.6 8 18 13.3-9.7 10.8-19.5 21.9-29.3 32.7-5.3-5.2-10.8-10.4-17.6-13.6zm17.6 13.6c9.8-10.8 19.6-21.9 29.3-32.7 5.4 5.2 10.9 10.6 16.3 15.8-9.6 10.9-19.4 21.8-29.3 32.5-5.4-5.2-10.9-10.5-16.3-15.6zm34.9 24.4c-3.8-1.5-7.6-2.6-11.7-2.4q-3.4-3.1-6.9-6.4c9.9-10.7 19.7-21.6 29.3-32.5 6 5.7 11.3 7.3 18.1 11.4 6.2 3.8 12.3 8.7 19.1 9.8q-14.1 13-28.2 26c-7 0.3-13.3-3.3-19.7-5.9zm-23.6-70.4c-7.2-2.8-14.8-2.2-21.3-1.8-6.6 0.3-13.4 5.5-19.6 5.5q14.3-12.7 28.5-25.3c6.9-2.9 12-8.4 19.2-10.5 6.6-1.9 14.4-2.7 21.8-0.3 7.6 2.5 13.1 7.5 18.6 12.9-9.7 10.8-19.4 22-29.2 32.8-5.4-5.3-10.8-10.4-18-13.3zm18 13.3c9.8-10.8 19.5-22 29.2-32.8 5.5 5.4 11 10.8 16.5 16.2-9.7 10.7-19.5 21.8-29.4 32.4-5.4-5.2-10.9-10.6-16.3-15.8zm34.4 27.2c-6.8-4.1-12.1-5.7-18.1-11.4 9.9-10.6 19.7-21.7 29.4-32.4 5.5 5.4 11.5 9.4 17.5 14.2 6.1 4.7 12 10.1 18.4 13.5q-14.1 13-28.1 25.9c-6.8-1.1-12.9-6-19.1-9.8zm-23.8-72.9c-7.4-2.4-15.2-1.6-21.8 0.3-7.2 2.1-12.3 7.6-19.2 10.5q14.2-12.6 28.3-25.2 5.7-5 11.4-10c2.1-1.9 4.3-3.8 6.8-5.3 6.5-3.6 14.4-4.7 22.1-3 2.7 0.6 5.5 1.6 8.1 3 2.3 1.1 4.4 2.5 6.2 4.1q2.8 2.8 5.6 5.6c-9.6 10.9-19.2 22-28.9 32.9-5.5-5.4-11-10.4-18.6-12.9zm18.6 12.9c9.7-10.9 19.3-22 28.9-32.9q8.6 8.5 17.2 17c-9.9 10.6-19.7 21.5-29.6 32.1-5.5-5.4-11-10.8-16.5-16.2zm34 30.4c-6-4.8-12-8.8-17.5-14.2 9.9-10.6 19.7-21.5 29.6-32.1q8.6 8.5 17.2 17 8.6 8.4 17.2 16.9-14.1 13-28.1 25.9c-6.4-3.4-12.3-8.8-18.4-13.5z"/>
				<path id="&lt;Mesh&gt;" class="s6" d="m857.1 447.4c-2.4-0.7-4.8-1.5-7-2.7-2.6-1.4-5-3.1-7.1-5-5.8-5.3-9.3-12.4-10.1-19.8-0.3-3 0.1-5.8 0.4-8.7q0.9-7.5 1.8-15 2.2-18.8 4.4-37.6c-0.4 6.7-0.4 15.7 1.2 22.3 1.6 6.6 6.3 12.5 12.6 17.1 6.7 4.9 13.5 6.6 21.4 8.1-3.2 14.2-6.6 28.5-9.8 42.7q-3.9-0.7-7.8-1.4zm7.8 1.4c3.2-14.2 6.6-28.5 9.8-42.7 7.5 1.4 15.2 2.9 22.7 4.4-2.8 14.2-5.9 28.5-8.8 42.7q-11.9-2.2-23.7-4.4zm47.4 8.8q-11.8-2.2-23.7-4.4c2.9-14.2 6-28.5 8.8-42.7 7.7 1.5 14.9 3.6 22.2 6.3 7 2.7 13.8 5.4 21.7 7.3q-2.6 18.9-5.2 37.9-11.9-2.2-23.8-4.4zm-59-59.6c-6.3-4.6-11-10.5-12.6-17.1-1.6-6.6-1.6-15.6-1.2-22.3q2.2-18.9 4.5-37.8c0 5.8 2.2 14.9 4.5 20.3 2.5 6 8.1 10.9 14.9 14.9 6.8 4 13.4 5.9 21.2 7.4-3.2 14.2-6.7 28.5-9.9 42.7-7.9-1.5-14.7-3.2-21.4-8.1zm21.4 8.1c3.2-14.2 6.7-28.5 9.9-42.7 7.3 1.4 14.8 3 22.2 4.4-3 14.2-6.3 28.5-9.4 42.7-7.5-1.5-15.2-3-22.7-4.4zm44.9 10.7c-7.3-2.7-14.5-4.8-22.2-6.3 3.1-14.2 6.4-28.5 9.4-42.7 7.5 1.5 14 4.1 20.5 8.3 6 3.7 11.5 7.8 19.2 10.1q-2.6 19-5.2 37.9c-7.9-1.9-14.7-4.6-21.7-7.3zm-56.2-60.8c-6.8-4-12.4-8.9-14.9-14.9-2.3-5.4-4.5-14.5-4.5-20.3q2.2-18.9 4.4-37.9c0.5 4.8 5.2 13.9 7.8 18.1 3.4 5.2 9.8 9.2 17 12.7 7 3.5 13.7 5.4 21.4 6.9-3.2 14.2-6.8 28.6-10 42.8-7.8-1.5-14.4-3.4-21.2-7.4zm21.2 7.4c3.2-14.2 6.8-28.6 10-42.8 7.3 1.5 14.9 3.1 22.3 4.7-3.3 14.1-6.8 28.4-10.1 42.5-7.4-1.4-14.9-3-22.2-4.4zm42.7 12.7c-6.5-4.2-13-6.8-20.5-8.3 3.3-14.1 6.8-28.4 10.1-42.5 7.3 1.5 12.8 4.5 18.5 10.1 4.9 4.8 9.1 10.1 16.2 13q-2.5 18.9-5.1 37.8c-7.7-2.3-13.2-6.4-19.2-10.1zm-54.1-62.4c-7.2-3.5-13.6-7.5-17-12.7-2.6-4.2-7.3-13.3-7.8-18.1q2.2-18.9 4.4-37.8c1.1 4.1 8.2 12.3 11.2 15.5 4.2 4.5 11.4 7.7 18.8 10.8 7.2 2.9 14.1 4.9 21.7 6.5-3.1 14.1-6.7 28.5-9.9 42.7-7.7-1.5-14.4-3.4-21.4-6.9zm21.4 6.9c3.2-14.2 6.8-28.6 9.9-42.7 7.3 1.4 15 3.2 22.4 4.8-3.2 14.2-6.8 28.5-10 42.6-7.4-1.6-15-3.2-22.3-4.7zm40.8 14.8c-5.7-5.6-11.2-8.6-18.5-10.1 3.2-14.1 6.8-28.4 10-42.6 7.6 1.7 12.1 5.3 16.7 12.1 3.8 5.7 6.9 12.1 13.2 15.7q-2.6 18.9-5.2 37.9c-7.1-2.9-11.3-8.2-16.2-13zm-52.6-64c-7.4-3.1-14.6-6.3-18.8-10.8-3-3.2-10.1-11.4-11.2-15.5q2.3-18.9 4.5-37.7c2.1 4 10.9 10.1 14.8 12.9 5.2 3.6 12.7 6.2 20.3 8.8 7.4 2.5 14.5 4.5 22.1 6.1-3.1 14.1-6.8 28.5-10 42.7-7.6-1.6-14.5-3.6-21.7-6.5zm21.7 6.5c3.2-14.2 6.9-28.6 10-42.7 7.3 1.5 15 3.3 22.5 5-3.3 14.1-6.8 28.4-10.1 42.5-7.4-1.6-15.1-3.4-22.4-4.8zm39.1 16.9c-4.6-6.8-9.1-10.4-16.7-12.1 3.3-14.1 6.8-28.4 10.1-42.5 7.9 1.8 11.1 5.7 14.7 13.9 3 6.6 5 13.9 10.3 18.5q-2.6 18.9-5.2 37.9c-6.3-3.6-9.4-10-13.2-15.7zm-51.2-65.7c-7.6-2.6-15.1-5.2-20.3-8.8-3.9-2.8-12.7-8.9-14.8-12.9q2.2-18.8 4.4-37.4c4.7 3.9 13.1 7.2 18.7 9.8 6.2 2.8 13.8 5 21.5 7.2 7.4 2.1 14.8 4 22.4 5.6-3 14-6.8 28.5-9.8 42.6-7.6-1.6-14.7-3.6-22.1-6.1zm22.1 6.1c3-14.1 6.8-28.6 9.8-42.6 7.4 1.5 15 3.3 22.5 5.1-3.1 14-6.7 28.4-9.8 42.5-7.5-1.7-15.2-3.5-22.5-5zm37.2 18.9c-3.6-8.2-6.8-12.1-14.7-13.9 3.1-14.1 6.7-28.5 9.8-42.5 9.1 2.1 10.3 6.4 13.1 15.8 2.1 7.3 3.6 15.2 7.3 21.2q-2.6 19-5.2 37.9c-5.3-4.6-7.3-11.9-10.3-18.5zm-49.8-67.1c-7.7-2.2-15.3-4.4-21.5-7.2-5.6-2.6-14-5.9-18.7-9.8q2-17 4.1-33.9 0.2-1.6 0.7-3.3c6.9 2.8 14.7 4.6 21.9 6.6 7.1 2 15 3.7 22.9 5.6 7.7 1.8 15.4 3.5 23.2 5.2-3.3 14.1-7 28.2-10.2 42.4-7.6-1.6-15-3.5-22.4-5.6zm22.4 5.6c3.2-14.2 6.9-28.3 10.2-42.4 7.7 1.6 15.5 3.4 23.2 5.3-3.9 13.9-7.3 28.1-10.9 42.2-7.5-1.8-15.1-3.6-22.5-5.1zm35.6 20.9c-2.8-9.4-4-13.7-13.1-15.8 3.6-14.1 7-28.3 10.9-42.2 9.7 2.3 9.1 8.3 10.6 18 1.3 7.9 2.1 16.1 4.1 23.4q-2.6 18.9-5.2 37.8c-3.7-6-5.2-13.9-7.3-21.2zm-48.6-68.5c-7.9-1.9-15.8-3.6-22.9-5.6-7.2-2-15-3.8-21.9-6.6q0.7-2.9 2.2-5.7c4.8-9.3 14.1-14.8 24.2-15.6q10.8 0.1 21.6 0.7 10.9 0.6 21.6 1.6 10.8 1 21.6 2.3c-9.6 8.5-20.2 21.3-23.2 34.1-7.8-1.7-15.5-3.4-23.2-5.2zm23.2 5.2c3-12.8 13.6-25.6 23.2-34.1q10.7 1.4 21.4 3.2c-8.3 10.5-17.7 23-21.4 36.2-7.7-1.9-15.5-3.7-23.2-5.3zm33.8 23.3c-1.5-9.7-0.9-15.7-10.6-18 3.7-13.2 13.1-25.7 21.4-36.2q1.9 0.3 3.9 0.6-1.2 8.8-2.4 17.6-1.5 10.8-3 21.5-2.6 18.9-5.2 37.9c-2-7.3-2.8-15.5-4.1-23.4z"/>
			</g>
		</g>
	</g>
</svg>