<svg width="41" height="50" viewBox="0 0 41 50" fill="none" xmlns="http://www.w3.org/2000/svg">
<g clip-path="url(#clip0_1_112)">
<path d="M23 16.875C22.9219 16.9531 22.9219 17.0312 22.7656 17.0312C22.5312 17.1875 22.2969 17.1875 21.9844 17.2656C20.841 17.4117 19.7155 17.6735 18.625 18.0469C18.0971 18.2084 17.5759 18.3909 17.0625 18.5938L15.5781 19.2969C15.1545 19.4909 14.7376 19.6994 14.3281 19.9219C13.9292 20.1697 13.5384 20.4302 13.1562 20.7031L11.8281 21.7188L11.125 22.2656L10.7344 22.5781H10.2656L9.71875 22.3438L10.4219 21.875H10.3438L9.79688 21.7969C9.69295 21.7869 9.5883 21.7869 9.48438 21.7969L8.78125 21.875C6.78951 22.2732 4.83079 22.8216 2.92188 23.5156L2.21875 23.9062L1.59375 24.4531L1.28125 25.0781C1.125 25.3125 1.04688 25.4688 1.04688 25.7031L0.96875 26.7969L1.04688 27.9688L1.125 29.0625V29.375L1.04688 29.4531L1.125 29.6094C1.125 29.7656 1.20312 29.8438 1.35938 29.9219L1.51562 30.0781L1.67188 30.3125L2.14062 30.7031L3 30.9375L3.9375 31.0938H4.875C4.7528 30.6889 4.69998 30.2662 4.71875 29.8438C4.7237 29.3178 4.84159 28.799 5.06444 28.3226C5.2873 27.8461 5.60991 27.4231 6.01044 27.0822C6.41098 26.7413 6.88009 26.4904 7.38601 26.3465C7.89193 26.2026 8.42287 26.1691 8.94287 26.2482C9.46287 26.3273 9.9598 26.5173 10.4 26.8051C10.8402 27.093 11.2135 27.4721 11.4945 27.9167C11.7755 28.3614 11.9576 28.8612 12.0287 29.3824C12.0997 29.9035 12.058 30.4339 11.9062 30.9375H12.1406L16.0469 30.8594L16.125 29.8438C16.8281 29.6094 17.6094 29.7656 18.3906 29.6875L19.1719 27.8125C19.1719 27.5 18.7031 27.4219 18.625 27.1094C18.3125 26.7188 17.5312 26.4844 17.7656 25.8594C19.0156 24.6875 20.1094 23.4375 21.3594 22.3438H21.125C19.5854 22.4344 18.0485 22.5646 16.5156 22.7344V22.3438L16.2812 21.9531L16.9062 19.2969L18.0781 18.9062C19.221 18.512 20.3979 18.2243 21.5938 18.0469L23.0781 17.8906L23.9375 17.8125L23.5469 20L22.9219 22.2656H21.75C22.2969 22.6562 22.6875 23.2812 23.2344 23.6719L25.1094 22.9688C25.2656 22.6562 25.1875 22.2656 25.1875 21.9531C25.2656 21.4844 25.0312 20.8594 25.4219 20.5469L25.7344 17.8125H26.8281C28.4308 17.9381 30.0231 18.173 31.5938 18.5156V21.9531H30.8906V22.8906L32.8438 23.6719C33.1562 23.6719 33.2344 23.2031 33.4688 23.125C33.9375 22.8125 34.1719 22.0312 34.7969 22.2656C35.9688 23.5156 37.2969 24.6875 38.4688 26.0156C38.2344 26.5625 37.7656 26.875 37.375 27.2656C37.9219 27.9688 38.3125 28.75 38.3125 29.6875H39.1719L39.7188 29.1406L40.0312 28.75L39.9531 28.125V25.9375L39.7969 25.0781L39.6406 24.8438L39.4844 24.6875L39.4062 23.75V23.125V23.2031L39.25 23.3594V23.5938L39.1719 23.9844L39.25 24.4531V24.7656L39.0938 24.8438L38.7031 24.9219L38.3125 24.7656C38 24.6094 37.8438 24.375 37.6875 24.2188L36.75 23.125C36.6719 23.0469 36.5156 22.9688 36.5156 22.8125L36.5938 22.5781C36.6719 22.3438 36.9062 22.3438 37.0625 22.2656L37.7656 22.0312L38.2344 21.9531H38.7812L39.1719 22.1875V22.2656C39.0938 21.9531 38.9375 21.7969 38.7812 21.5625L38.2344 21.3281H37.8438L37.2969 20.625C36.84 20.0439 36.3155 19.5194 35.7344 19.0625L34.7969 18.4375L35.3438 18.2031C35.1875 18.125 35.3438 17.8906 35.2656 17.8125L34.9531 17.7344L33.8594 17.6562L32.5312 17.5L31.125 17.2656L28.3125 17.1094L25.1875 17.0312C24.7966 17.0093 24.406 16.9832 24.0156 16.9531L23 16.875ZM32.6094 18.6719L33.3906 18.9062C34.2017 19.1973 34.9457 19.649 35.5781 20.2344C35.8125 20.3906 36.0469 20.625 36.2031 20.9375C36.3594 21.1719 36.2812 21.0938 36.0469 21.25C35.0962 21.5345 34.1314 21.7692 33.1562 21.9531L32.6094 18.6719ZM16.5938 19.4531L15.9688 21.6406H15.5781L15.1094 21.7969L14.7188 22.0312C14.5625 22.1094 14.4062 22.3438 14.4062 22.5V23.0469L13.8594 23.125L13.2344 23.2031L13.5469 21.9531L13.9375 21.1719L14.4062 20.7031L15.4219 20.0781L16.5938 19.4531ZM5.96875 23.3594L6.125 23.4375L6.20312 23.5938L6.04688 23.8281L5.26562 24.375L4.25 25.2344L3.70312 25.5469L3.23438 25.625L2.29688 25.7031H1.90625L1.82812 25.4688L1.51562 25.2344L1.35938 25.1562C1.35938 25 1.59375 24.8438 1.75 24.6875L2.14062 24.375H2.375L2.92188 24.0625L3.70312 23.8281L4.40625 23.5938L5.10938 23.4375C5.31761 23.4284 5.52614 23.4284 5.73438 23.4375L5.96875 23.3594ZM8.39062 26.6406C7.92268 26.5678 7.4445 26.5971 6.98895 26.7265C6.5334 26.856 6.11127 27.0825 5.75155 27.3905C5.39184 27.6986 5.10307 28.0808 4.90508 28.511C4.70709 28.9413 4.60458 29.4092 4.60458 29.8828C4.60458 30.3564 4.70709 30.8244 4.90508 31.2546C5.10307 31.6848 5.39184 32.0671 5.75155 32.3751C6.11127 32.6831 6.5334 32.9097 6.98895 33.0391C7.4445 33.1686 7.92268 33.1979 8.39062 33.125C9.16406 33.0046 9.86897 32.6116 10.3781 32.0171C10.8873 31.4225 11.1671 30.6656 11.1671 29.8828C11.1671 29.1001 10.8873 28.3431 10.3781 27.7485C9.86897 27.154 9.16406 26.761 8.39062 26.6406ZM8.39062 27.5C9.01223 27.5 9.60837 27.7469 10.0479 28.1865C10.4874 28.626 10.7344 29.2221 10.7344 29.8438C10.7344 30.4654 10.4874 31.0615 10.0479 31.501C9.60837 31.9406 9.01223 32.1875 8.39062 32.1875C7.76902 32.1875 7.17288 31.9406 6.73334 31.501C6.29381 31.0615 6.04688 30.4654 6.04688 29.8438C6.04688 29.2221 6.29381 28.626 6.73334 28.1865C7.17288 27.7469 7.76902 27.5 8.39062 27.5ZM37.0625 27.6562L36.9062 27.7344C37.2188 28.3594 37.5312 28.9844 37.6875 29.6875H37.8438C37.8438 28.9062 37.5312 28.2031 37.0625 27.6562ZM28 27.9688C27.1122 27.9889 26.2492 28.265 25.5147 28.764C24.7801 29.2629 24.2053 29.9634 23.8594 30.7812L30.6562 30.625H30.9688C30.859 30.1099 30.859 29.5776 30.9688 29.0625C30.1875 28.3594 29.1719 27.9688 28.1562 27.9688H28ZM31.3594 29.4531C31.3544 29.5572 31.3544 29.6615 31.3594 29.7656C31.3594 30.8594 31.8281 31.7969 32.6094 32.3438C32.6094 31.25 32.1406 30.2344 31.3594 29.4531Z" fill="#222222"/>
<path d="M25.8125 23.2031C25.7344 23.6719 25.1094 23.5156 24.7969 23.75L23.1562 24.5312L21.5938 22.9688L18.3906 26.0938L20.0312 27.6562C19.4844 28.5156 19.0938 29.4531 18.8594 30.3906H16.6719V34.8438H18.8594C19.0938 35.7812 19.4844 36.6406 20.0312 37.5L18.3906 39.0625L21.5938 42.2656L23.1562 40.7031C23.9849 41.1927 24.8794 41.561 25.8125 41.7969V43.9844H30.2656V41.7969C31.2257 41.5681 32.147 41.1996 33 40.7031L34.5625 42.2656L37.6875 39.0625L36.125 37.5C36.6719 36.6406 36.9844 35.7812 37.2188 34.8438H39.4844V30.3906H37.2188C36.99 29.4305 36.6215 28.5092 36.125 27.6562L37.6875 26.0938L34.5625 22.9688L33 24.5312C32.1406 24.0625 31.2031 23.6719 30.2656 23.4375V21.1719H25.8125V23.2031ZM28.0781 27.4219C30.7344 27.3438 33.0781 29.6094 33.2344 32.1875C33.4688 34.6875 31.6719 37.1094 29.3281 37.6562C26.9844 38.2031 24.4062 37.0312 23.3906 34.9219C23.0086 34.1263 22.834 33.2471 22.8829 32.3659C22.9318 31.4848 23.2028 30.6303 23.6705 29.8819C24.1382 29.1336 24.7876 28.5156 25.5582 28.0855C26.3288 27.6554 27.1956 27.4271 28.0781 27.4219Z" fill="#990000"/>
</g>
<defs>
<clipPath id="clip0_1_112">
<rect width="40" height="50" fill="white" transform="translate(0.5)"/>
</clipPath>
</defs>
</svg>
