<?xml version="1.0" encoding="utf-8"?>
<!-- Generator: Adobe Illustrator 24.3.0, SVG Export Plug-In . SVG Version: 6.00 Build 0)  -->
<svg version="1.1" id="Layer_1" xmlns:xodm="http://www.corel.com/coreldraw/odm/2003"
	 xmlns="http://www.w3.org/2000/svg" xmlns:xlink="http://www.w3.org/1999/xlink" x="0px" y="0px" viewBox="0 0 419 77"
	 style="enable-background:new 0 0 419 77;" xml:space="preserve">
<style type="text/css">
	.st0{fill:#FFFFFF;}
	.st1{fill-rule:evenodd;clip-rule:evenodd;fill:#990000;}
</style>
<g id="Layer_x0020_1">
	<path class="st0" d="M124,15l-6.2,19h12.4L124,15z M104.8,76.6V63.9h2.6v10.4h6.2v2.3H104.8z M121.3,70.3c0,1.4,0.3,2.5,0.9,3.3
		c0.6,0.8,1.5,1.2,2.6,1.2s2-0.4,2.6-1.2c0.6-0.8,0.9-1.9,0.9-3.3c0-1.4-0.3-2.5-0.9-3.3c-0.6-0.8-1.5-1.2-2.6-1.2s-2,0.4-2.6,1.2
		C121.6,67.8,121.3,68.9,121.3,70.3z M118.6,70.3c0-2.1,0.6-3.7,1.7-4.9c1.1-1.2,2.6-1.8,4.5-1.8c1.9,0,3.4,0.6,4.5,1.8
		c1.1,1.2,1.7,2.8,1.7,4.9s-0.6,3.7-1.7,4.9c-1.1,1.2-2.6,1.8-4.5,1.8c-1.9,0-3.4-0.6-4.5-1.8C119.2,73.9,118.6,72.3,118.6,70.3z
		 M148.9,72.2c-0.1,1.4-0.6,2.6-1.7,3.4c-1,0.8-2.3,1.3-4,1.3c-1.9,0-3.3-0.6-4.4-1.8c-1-1.2-1.6-2.8-1.6-4.9c0-2.2,0.5-3.8,1.6-5
		c1.1-1.1,2.6-1.7,4.6-1.7c1.6,0,2.9,0.4,3.8,1.2c0.9,0.8,1.5,1.9,1.5,3.3h-2.6c-0.1-0.7-0.4-1.3-0.9-1.6c-0.5-0.4-1.1-0.6-1.9-0.6
		c-1.1,0-2,0.4-2.6,1.1c-0.6,0.7-0.9,1.8-0.9,3.2c0,1.4,0.3,2.4,0.9,3.2c0.6,0.8,1.4,1.1,2.5,1.1c0.8,0,1.4-0.2,1.9-0.6s0.8-1,1-1.7
		H148.9L148.9,72.2z M160.5,66.4l-1.8,5.4h3.5L160.5,66.4z M159,63.9h3l4.6,12.7h-2.7L163,74h-4.9l-0.8,2.6h-2.8L159,63.9z
		 M174.7,76.6V66.2h-3.8v-2.3H181v2.3h-3.7v10.4H174.7z M187.4,76.6V63.9h2.6v12.7H187.4z M199.6,70.3c0,1.4,0.3,2.5,0.9,3.3
		c0.6,0.8,1.5,1.2,2.6,1.2c1.1,0,2-0.4,2.6-1.2c0.6-0.8,0.9-1.9,0.9-3.3s-0.3-2.5-0.9-3.3c-0.6-0.8-1.5-1.2-2.6-1.2
		c-1.1,0-2,0.4-2.6,1.2C200,67.8,199.6,68.9,199.6,70.3z M197,70.3c0-2.1,0.6-3.7,1.7-4.9c1.1-1.2,2.6-1.8,4.5-1.8s3.4,0.6,4.5,1.8
		c1.1,1.2,1.7,2.8,1.7,4.9s-0.6,3.7-1.7,4.9c-1.1,1.2-2.6,1.8-4.5,1.8s-3.4-0.6-4.5-1.8S197,72.3,197,70.3z M216.2,76.6V63.9h2.7
		l5.2,8.7v-8.7h2.6v12.7H224l-5.2-8.7v8.7L216.2,76.6L216.2,76.6z M251.7,74.3h2.1c1.2,0,2.1-0.3,2.6-1c0.5-0.6,0.8-1.7,0.8-3.1
		c0-1.4-0.3-2.5-0.8-3.1c-0.5-0.7-1.3-1-2.4-1h-2.4L251.7,74.3L251.7,74.3z M249.2,76.6V63.9h5c1.9,0,3.4,0.5,4.4,1.6
		c1,1,1.4,2.6,1.4,4.8c0,1.2-0.2,2.2-0.5,3.1c-0.4,0.9-0.9,1.6-1.5,2.1c-0.5,0.4-1.1,0.7-1.7,0.9c-0.6,0.2-1.5,0.3-2.7,0.3
		L249.2,76.6L249.2,76.6z M266.8,76.6V63.9h9.2v2.2h-6.6v2.7h6.1V71h-6.1v3.3h7v2.3H266.8z M301.1,76.6l-4.4-12.7h2.9l2.7,9.5
		l2.8-9.5h2.9l-4.3,12.7H301.1L301.1,76.6z M316.1,70.3c0,1.4,0.3,2.5,0.9,3.3c0.6,0.8,1.5,1.2,2.6,1.2c1.1,0,2-0.4,2.6-1.2
		c0.6-0.8,0.9-1.9,0.9-3.3s-0.3-2.5-0.9-3.3c-0.6-0.8-1.5-1.2-2.6-1.2c-1.1,0-2,0.4-2.6,1.2C316.4,67.8,316.1,68.9,316.1,70.3z
		 M313.4,70.3c0-2.1,0.6-3.7,1.7-4.9c1.1-1.2,2.6-1.8,4.5-1.8c1.9,0,3.4,0.6,4.5,1.8c1.1,1.2,1.7,2.8,1.7,4.9s-0.6,3.7-1.7,4.9
		c-1.1,1.2-2.6,1.8-4.5,1.8c-1.9,0-3.4-0.6-4.5-1.8S313.4,72.3,313.4,70.3z M332.7,76.6V63.9h2.6v12.7H332.7z M345.5,76.6V66.2h-3.8
		v-2.3h10.1v2.3h-3.7v10.4H345.5z M358.1,63.9h2.6v8c0,1,0.2,1.7,0.6,2.2c0.4,0.4,1,0.7,1.9,0.7c0.9,0,1.5-0.2,1.9-0.7
		c0.4-0.4,0.6-1.2,0.6-2.2v-8h2.6v8.3c0,1.6-0.4,2.8-1.3,3.6c-0.9,0.8-2.1,1.2-3.8,1.2c-1.6,0-2.9-0.4-3.8-1.2
		c-0.9-0.8-1.3-2-1.3-3.6L358.1,63.9L358.1,63.9z M378.2,69.4h3.1c0.7,0,1.2-0.1,1.5-0.4c0.3-0.3,0.5-0.7,0.5-1.3
		c0-0.5-0.2-1-0.5-1.3c-0.3-0.3-0.8-0.4-1.4-0.4h-3.2V69.4z M375.6,76.6V63.9h6.2c1.4,0,2.4,0.3,3.1,0.9c0.7,0.6,1,1.5,1,2.7
		c0,0.8-0.2,1.4-0.5,1.9c-0.3,0.5-0.8,0.9-1.4,1.1c0.6,0.2,0.9,0.5,1.2,0.9c0.2,0.4,0.4,1,0.4,1.9l0.1,1.5c0,0,0,0,0,0.1
		c0,0.8,0.2,1.2,0.5,1.4v0.4h-2.9c-0.1-0.2-0.2-0.4-0.2-0.7c-0.1-0.3-0.1-0.6-0.1-0.9l0-1.3c0-0.8-0.2-1.3-0.4-1.6
		c-0.3-0.3-0.8-0.4-1.4-0.4h-2.8v4.9C378.2,76.6,375.6,76.6,375.6,76.6z M392.9,76.6V63.9h9.2v2.2h-6.6v2.7h6.1V71h-6.1v3.3h6.9v2.3
		H392.9L392.9,76.6z M408.7,72.7h2.6c0.1,0.7,0.4,1.2,0.8,1.5c0.5,0.3,1.2,0.5,2,0.5c0.8,0,1.3-0.1,1.7-0.4c0.4-0.3,0.6-0.7,0.6-1.2
		c0-0.8-1.1-1.4-3.3-1.9l-0.1,0c-0.1,0-0.1,0-0.3-0.1c-1.2-0.3-2-0.5-2.5-0.9c-0.4-0.3-0.8-0.7-1-1.2c-0.2-0.5-0.4-1.1-0.4-1.7
		c0-1.2,0.4-2.2,1.3-2.8c0.8-0.7,2.1-1,3.6-1c1.5,0,2.6,0.3,3.5,1.1c0.8,0.7,1.3,1.7,1.3,3H416c0-0.6-0.3-1.1-0.7-1.4
		c-0.4-0.3-1-0.5-1.8-0.5c-0.7,0-1.2,0.1-1.6,0.4s-0.6,0.6-0.6,1.1c0,0.7,0.7,1.2,2.2,1.5c0.4,0.1,0.7,0.2,0.9,0.2
		c0.9,0.2,1.6,0.4,2,0.6s0.7,0.3,1,0.4c0.5,0.3,0.9,0.7,1.2,1.1c0.3,0.5,0.4,1,0.4,1.7c0,1.3-0.4,2.3-1.3,3.1
		c-0.9,0.7-2.2,1.1-3.8,1.1c-1.6,0-2.9-0.4-3.8-1.1C409.2,75.1,408.7,74,408.7,72.7z M118.7,6.1h10.6l16.1,44.6h-9.6l-3-9.2h-17.3
		l-2.9,9.2h-9.7L118.7,6.1z M150,50.7V6.1h9.6l18.1,30.7V6.1h9.1v44.6h-9.5L159,20v30.7H150z M196.3,50.7V6.1h9.2v44.6H196.3z
		 M212.9,36.9h9.1c0.3,2.4,1.3,4.3,3,5.4c1.7,1.2,4.1,1.8,7.2,1.8c2.7,0,4.7-0.5,6-1.4c1.4-0.9,2-2.4,2-4.2c0-2.7-3.9-4.9-11.7-6.7
		l-0.3-0.1c-0.2,0-0.5-0.1-0.9-0.2c-4.2-0.9-7.1-1.9-8.9-3.1c-1.6-1-2.8-2.4-3.6-4.1c-0.8-1.7-1.2-3.7-1.2-6.1c0-4.3,1.5-7.7,4.4-10
		c2.9-2.3,7.2-3.5,12.8-3.5c5.2,0,9.3,1.2,12.2,3.7c2.9,2.5,4.5,5.9,4.6,10.4h-8.8c-0.2-2.2-1-3.8-2.5-4.9c-1.5-1.1-3.6-1.7-6.4-1.7
		c-2.4,0-4.3,0.5-5.6,1.4c-1.3,0.9-1.9,2.3-1.9,4c0,2.4,2.5,4.1,7.6,5.3c1.4,0.3,2.4,0.6,3.2,0.8c3.3,0.8,5.6,1.5,6.9,1.9
		c1.4,0.5,2.5,1,3.6,1.5c1.8,1,3.2,2.4,4.1,4c0.9,1.7,1.4,3.7,1.4,6c0,4.6-1.6,8.3-4.7,10.8c-3.1,2.6-7.6,3.8-13.2,3.8
		c-5.6,0-10-1.3-13.2-3.9C214.9,45.4,213.2,41.7,212.9,36.9z M266.4,50.7V11.5h-14.1V6.1h34.3v5.4h-14.1v39.2H266.4L266.4,50.7z
		 M296.3,28.4c0,5.7,1.3,10.2,3.9,13.4c2.6,3.2,6.3,4.8,11,4.8c4.6,0,8.3-1.6,10.9-4.8c2.6-3.2,3.9-7.7,3.9-13.4
		c0-5.7-1.3-10.2-3.9-13.4s-6.2-4.8-10.9-4.8c-4.7,0-8.3,1.6-11,4.8C297.6,18.2,296.3,22.7,296.3,28.4z M290,28.4
		c0-7.4,1.9-13.1,5.6-17.3c3.7-4.2,8.9-6.2,15.6-6.2c6.6,0,11.8,2.1,15.5,6.2c3.7,4.1,5.6,9.9,5.6,17.3c0,7.4-1.9,13.1-5.6,17.3
		c-3.7,4.1-8.9,6.2-15.5,6.2c-6.6,0-11.8-2.1-15.6-6.2C291.9,41.6,290,35.8,290,28.4z M339.7,33.8V6.1h6.1v27.8
		c0,4.2,0.9,7.3,2.8,9.3c1.9,2,4.7,3,8.6,3c3.8,0,6.7-1,8.6-3c1.9-2,2.8-5.1,2.8-9.2V6.1h6.1v27.7c0,6-1.5,10.5-4.6,13.6
		c-3.1,3.1-7.6,4.6-13.6,4.6c-5.6,0-9.8-1.5-12.5-4.5C341.1,44.4,339.7,39.8,339.7,33.8L339.7,33.8z M389.9,11.3v15.1h10.4
		c3.7,0,6.4-0.6,7.9-1.8c1.5-1.2,2.3-3.2,2.3-6.1c0-2.6-0.7-4.5-2.2-5.6c-1.5-1.1-4.1-1.6-8.1-1.6H389.9z M383.9,6.1h17.3
		c2.8,0,4.9,0.1,6.2,0.4c1.3,0.2,2.5,0.6,3.6,1.2c1.9,1,3.3,2.5,4.3,4.3c1,1.8,1.5,4,1.5,6.5c0,2.4-0.5,4.5-1.6,6.2
		c-1,1.7-2.6,3.1-4.6,4c1.7,0.5,3,1.3,3.7,2.5c0.7,1.2,1.2,3.1,1.4,5.8l0.5,7.4c0.1,1.6,0.3,2.8,0.6,3.5c0.3,0.8,0.8,1.3,1.4,1.7
		v1.2h-7c-0.6-0.9-1-2.9-1.2-6v-0.2l-0.4-5.8c-0.2-3-0.8-4.9-1.9-5.8c-1.1-0.9-3.8-1.3-8-1.3h-9.8v19.1h-6L383.9,6.1L383.9,6.1z"/>
	<polygon class="st1" points="42.1,0.1 84.1,75.7 66.7,75.7 42.1,31.4 25.9,60.5 52.1,60.5 60.5,75.7 0,75.7 	"/>
</g>
</svg>
