<?xml version="1.0" encoding="UTF-8"?>
<!DOCTYPE svg PUBLIC "-//W3C//DTD SVG 1.1//EN" "http://www.w3.org/Graphics/SVG/1.1/DTD/svg11.dtd">
<!-- Creator: CorelDRAW -->
<svg xmlns="http://www.w3.org/2000/svg" xml:space="preserve" width="419px" height="77px" version="1.1" style="shape-rendering:geometricPrecision; text-rendering:geometricPrecision; image-rendering:optimizeQuality; fill-rule:evenodd; clip-rule:evenodd"
viewBox="0 0 496.51 91.09"
 xmlns:xlink="http://www.w3.org/1999/xlink"
 xmlns:xodm="http://www.corel.com/coreldraw/odm/2003">
 <defs>
  <style type="text/css">
   <![CDATA[
    .fil1 {fill:#990000}
    .fil0 {fill:black;fill-rule:nonzero}
   ]]>
  </style>
 </defs>
 <g id="Layer_x0020_1">
  <metadata id="CorelCorpID_0Corel-Layer"/>
  <path class="fil0" d="M146.94 17.7l-7.33 22.52 14.68 0 -7.35 -22.52zm-22.78 72.98l0 -15.05 3.1 0 0 12.27 7.34 0 0 2.78 -10.44 0zm19.56 -7.51c0,1.66 0.37,2.94 1.1,3.86 0.74,0.91 1.76,1.37 3.09,1.37 1.33,0 2.37,-0.46 3.11,-1.37 0.75,-0.92 1.12,-2.2 1.12,-3.86 0,-1.66 -0.37,-2.94 -1.12,-3.86 -0.74,-0.91 -1.78,-1.37 -3.11,-1.37 -1.33,0 -2.35,0.46 -3.09,1.37 -0.73,0.91 -1.1,2.2 -1.1,3.86zm-3.16 0c0,-2.43 0.67,-4.36 1.99,-5.79 1.32,-1.42 3.11,-2.14 5.36,-2.14 2.25,0 4.03,0.72 5.37,2.15 1.33,1.43 1.99,3.36 1.99,5.78 0,2.42 -0.66,4.35 -1.99,5.78 -1.34,1.43 -3.12,2.14 -5.37,2.14 -2.25,0 -4.04,-0.71 -5.36,-2.14 -1.32,-1.43 -1.99,-3.36 -1.99,-5.78zm35.92 2.34c-0.11,1.71 -0.77,3.07 -1.97,4.08 -1.21,1 -2.77,1.5 -4.71,1.5 -2.22,0 -3.95,-0.69 -5.19,-2.08 -1.24,-1.39 -1.85,-3.33 -1.85,-5.84 0,-2.56 0.63,-4.52 1.89,-5.89 1.26,-1.36 3.07,-2.04 5.43,-2.04 1.92,0 3.44,0.47 4.55,1.41 1.11,0.93 1.73,2.26 1.83,3.96l-3.05 0c-0.13,-0.85 -0.48,-1.5 -1.04,-1.94 -0.57,-0.45 -1.33,-0.67 -2.29,-0.67 -1.36,0 -2.4,0.44 -3.1,1.32 -0.71,0.87 -1.07,2.16 -1.07,3.85 0,1.64 0.35,2.9 1.06,3.79 0.7,0.89 1.71,1.33 3.01,1.33 0.94,0 1.71,-0.23 2.31,-0.71 0.6,-0.48 0.98,-1.18 1.16,-2.07l3.03 0zm13.74 -6.87l-2.09 6.41 4.18 0 -2.09 -6.41zm-1.8 -3.01l3.58 0 5.42 15.05 -3.25 0 -1.02 -3.1 -5.83 0 -0.99 3.1 -3.26 0 5.35 -15.05zm18.59 15.05l0 -12.36 -4.47 0 0 -2.69 12 0 0 2.69 -4.44 0 0 12.36 -3.09 0zm15.08 0l0 -15.05 3.09 0 0 15.05 -3.09 0zm14.49 -7.51c0,1.66 0.37,2.94 1.1,3.86 0.74,0.91 1.77,1.37 3.09,1.37 1.33,0 2.37,-0.46 3.11,-1.37 0.75,-0.92 1.12,-2.2 1.12,-3.86 0,-1.66 -0.37,-2.94 -1.12,-3.86 -0.74,-0.91 -1.78,-1.37 -3.11,-1.37 -1.32,0 -2.35,0.46 -3.09,1.37 -0.73,0.91 -1.1,2.2 -1.1,3.86zm-3.16 0c0,-2.43 0.67,-4.36 1.99,-5.79 1.32,-1.42 3.11,-2.14 5.36,-2.14 2.25,0 4.03,0.72 5.37,2.15 1.33,1.43 1.99,3.36 1.99,5.78 0,2.42 -0.66,4.35 -1.99,5.78 -1.34,1.43 -3.12,2.14 -5.37,2.14 -2.25,0 -4.04,-0.71 -5.36,-2.14 -1.32,-1.43 -1.99,-3.36 -1.99,-5.78zm22.83 7.51l0 -15.05 3.24 0 6.11 10.34 0 -10.34 3.05 0 0 15.05 -3.2 0 -6.15 -10.34 0 10.34 -3.05 0zm42.04 -2.72l2.48 0c1.44,0 2.48,-0.37 3.12,-1.13 0.65,-0.75 0.97,-1.97 0.97,-3.66 0,-1.68 -0.3,-2.92 -0.9,-3.71 -0.6,-0.79 -1.54,-1.19 -2.81,-1.19l-2.86 0 0 9.69zm-3.03 2.72l0 -15.05 5.89 0c2.31,0 4.03,0.63 5.16,1.87 1.14,1.24 1.7,3.13 1.7,5.67 0,1.37 -0.21,2.59 -0.62,3.64 -0.42,1.05 -1.03,1.89 -1.83,2.53 -0.59,0.48 -1.28,0.82 -2.04,1.03 -0.77,0.2 -1.83,0.31 -3.21,0.31l-5.05 0zm20.87 0l0 -15.05 10.92 0 0 2.62 -7.87 0 0 3.2 7.2 0 0 2.58 -7.2 0 0 3.87 8.24 0 0 2.78 -11.29 0zm40.69 0l-5.19 -15.05 3.43 0 3.2 11.26 3.26 -11.26 3.39 0 -5.13 15.05 -2.96 0zm17.71 -7.51c0,1.66 0.37,2.94 1.1,3.86 0.74,0.91 1.77,1.37 3.09,1.37 1.33,0 2.37,-0.46 3.12,-1.37 0.74,-0.92 1.11,-2.2 1.11,-3.86 0,-1.66 -0.37,-2.94 -1.11,-3.86 -0.75,-0.91 -1.79,-1.37 -3.12,-1.37 -1.32,0 -2.35,0.46 -3.09,1.37 -0.73,0.91 -1.1,2.2 -1.1,3.86zm-3.15 0c0,-2.43 0.66,-4.36 1.98,-5.79 1.32,-1.42 3.11,-2.14 5.36,-2.14 2.25,0 4.04,0.72 5.37,2.15 1.33,1.43 2,3.36 2,5.78 0,2.42 -0.67,4.35 -2,5.78 -1.33,1.43 -3.12,2.14 -5.37,2.14 -2.25,0 -4.04,-0.71 -5.36,-2.14 -1.32,-1.43 -1.98,-3.36 -1.98,-5.78zm22.92 7.51l0 -15.05 3.1 0 0 15.05 -3.1 0zm15.11 0l0 -12.36 -4.47 0 0 -2.69 11.99 0 0 2.69 -4.43 0 0 12.36 -3.09 0zm14.88 -15.09l3.13 0 0 9.44c0,1.16 0.23,2.01 0.69,2.55 0.47,0.53 1.2,0.8 2.21,0.8 1.02,0 1.77,-0.27 2.23,-0.8 0.47,-0.53 0.7,-1.38 0.7,-2.55l0 -9.44 3.1 0 0 9.78c0,1.84 -0.52,3.26 -1.55,4.24 -1.03,0.99 -2.52,1.48 -4.46,1.48 -1.95,0 -3.45,-0.49 -4.49,-1.47 -1.04,-0.99 -1.56,-2.4 -1.56,-4.25l0 -9.78zm23.85 6.62l3.64 0c0.79,0 1.37,-0.16 1.74,-0.48 0.37,-0.32 0.55,-0.83 0.55,-1.51 0,-0.65 -0.18,-1.15 -0.54,-1.49 -0.36,-0.34 -0.9,-0.5 -1.61,-0.5l-3.78 0 0 3.98zm-3.1 8.47l0 -15.05 7.3 0c1.64,0 2.85,0.35 3.65,1.05 0.79,0.7 1.18,1.77 1.18,3.22 0,0.92 -0.19,1.69 -0.58,2.3 -0.38,0.61 -0.94,1.03 -1.66,1.26 0.66,0.23 1.12,0.58 1.4,1.06 0.27,0.47 0.43,1.22 0.47,2.22l0.06 1.78c0,0.02 0,0.04 0,0.06 0.03,0.9 0.22,1.45 0.59,1.64l0 0.46 -3.4 0c-0.1,-0.22 -0.19,-0.47 -0.24,-0.78 -0.06,-0.31 -0.1,-0.68 -0.11,-1.11l-0.04 -1.59c-0.04,-0.93 -0.21,-1.56 -0.53,-1.89 -0.32,-0.32 -0.89,-0.49 -1.71,-0.49l-3.28 0 0 5.86 -3.1 0zm20.6 0l0 -15.05 10.92 0 0 2.62 -7.86 0 0 3.2 7.19 0 0 2.58 -7.19 0 0 3.87 8.23 0 0 2.78 -11.29 0zm18.63 -4.65l3.06 0c0.11,0.82 0.45,1.43 1,1.83 0.56,0.4 1.37,0.6 2.42,0.6 0.91,0 1.58,-0.16 2.04,-0.48 0.45,-0.32 0.68,-0.79 0.68,-1.42 0,-0.91 -1.31,-1.67 -3.93,-2.27l-0.09 -0.02c-0.07,-0.01 -0.17,-0.04 -0.32,-0.07 -1.4,-0.3 -2.4,-0.65 -3,-1.03 -0.53,-0.34 -0.94,-0.8 -1.21,-1.37 -0.28,-0.58 -0.42,-1.26 -0.42,-2.04 0,-1.47 0.49,-2.59 1.49,-3.37 0.99,-0.78 2.43,-1.17 4.31,-1.17 1.75,0 3.13,0.41 4.12,1.25 0.99,0.83 1.51,2 1.56,3.51l-2.97 0c-0.05,-0.73 -0.33,-1.28 -0.83,-1.66 -0.51,-0.38 -1.23,-0.57 -2.16,-0.57 -0.81,0 -1.43,0.15 -1.87,0.47 -0.44,0.32 -0.66,0.77 -0.66,1.35 0,0.8 0.85,1.4 2.56,1.79 0.46,0.11 0.83,0.2 1.08,0.25 1.1,0.28 1.88,0.5 2.34,0.66 0.46,0.16 0.86,0.33 1.2,0.52 0.61,0.34 1.07,0.79 1.38,1.35 0.3,0.56 0.46,1.24 0.46,2.02 0,1.57 -0.53,2.78 -1.58,3.65 -1.06,0.86 -2.55,1.28 -4.47,1.28 -1.89,0 -3.38,-0.43 -4.45,-1.31 -1.08,-0.88 -1.66,-2.13 -1.74,-3.75zm-343.66 -78.92l12.58 0 19.06 52.89 -11.41 0 -3.6 -10.89 -20.5 0 -3.48 10.89 -11.46 0 18.81 -52.89zm37.09 52.89l0 -52.89 11.39 0 21.47 36.33 0 -36.33 10.73 0 0 52.89 -11.24 0 -21.62 -36.34 0 36.34 -10.73 0zm54.87 0l0 -52.89 10.87 0 0 52.89 -10.87 0zm19.76 -16.34l10.74 0c0.4,2.89 1.59,5.04 3.55,6.45 1.97,1.39 4.8,2.09 8.51,2.09 3.16,0 5.54,-0.56 7.15,-1.68 1.6,-1.12 2.41,-2.79 2.41,-5 0,-3.2 -4.61,-5.86 -13.83,-7.96l-0.33 -0.08c-0.23,-0.05 -0.6,-0.13 -1.1,-0.24 -4.94,-1.08 -8.45,-2.29 -10.56,-3.63 -1.87,-1.2 -3.29,-2.81 -4.27,-4.83 -0.98,-2.02 -1.47,-4.41 -1.47,-7.17 0,-5.15 1.74,-9.09 5.24,-11.82 3.49,-2.75 8.55,-4.12 15.15,-4.12 6.17,0 11,1.46 14.49,4.39 3.48,2.91 5.32,7.03 5.5,12.35l-10.44 0c-0.2,-2.56 -1.18,-4.52 -2.94,-5.86 -1.78,-1.33 -4.3,-2.01 -7.57,-2.01 -2.86,0 -5.05,0.55 -6.6,1.67 -1.54,1.11 -2.31,2.69 -2.31,4.75 0,2.81 3,4.9 9.01,6.29 1.62,0.38 2.9,0.69 3.81,0.89 3.86,0.99 6.59,1.76 8.2,2.31 1.61,0.55 3.02,1.15 4.22,1.82 2.15,1.2 3.77,2.79 4.84,4.76 1.08,1.97 1.62,4.34 1.62,7.1 0,5.5 -1.85,9.78 -5.56,12.8 -3.72,3.03 -8.95,4.54 -15.7,4.54 -6.66,0 -11.87,-1.55 -15.65,-4.64 -3.79,-3.08 -5.82,-7.47 -6.11,-13.17zm63.37 16.34l0 -46.46 -16.7 0 0 -6.43 40.61 0 0 6.43 -16.7 0 0 46.46 -7.21 0zm35.43 -26.39c0,6.78 1.55,12.07 4.68,15.88 3.12,3.81 7.45,5.73 12.98,5.73 5.5,0 9.8,-1.92 12.9,-5.73 3.1,-3.81 4.66,-9.1 4.66,-15.88 0,-6.8 -1.56,-12.1 -4.66,-15.91 -3.1,-3.81 -7.4,-5.71 -12.9,-5.71 -5.53,0 -9.86,1.9 -12.98,5.71 -3.13,3.81 -4.68,9.11 -4.68,15.91zm-7.44 0c0,-8.74 2.22,-15.58 6.67,-20.49 4.43,-4.92 10.57,-7.38 18.43,-7.38 7.83,0 13.94,2.45 18.37,7.37 4.41,4.9 6.62,11.74 6.62,20.5 0,8.74 -2.21,15.56 -6.62,20.48 -4.43,4.91 -10.54,7.38 -18.37,7.38 -7.86,0 -14,-2.47 -18.43,-7.38 -4.45,-4.92 -6.67,-11.74 -6.67,-20.48zm58.84 6.31l0 -32.81 7.18 0 0 32.89c0,4.96 1.09,8.62 3.28,10.99 2.2,2.36 5.59,3.55 10.19,3.55 4.54,0 7.94,-1.2 10.18,-3.61 2.24,-2.41 3.36,-6.04 3.36,-10.93l0 -32.89 7.21 0 0 32.81c0,7.09 -1.83,12.45 -5.47,16.09 -3.65,3.64 -9.02,5.46 -16.1,5.46 -6.61,0 -11.57,-1.79 -14.87,-5.38 -3.31,-3.59 -4.96,-8.99 -4.96,-16.17zm59.45 -26.6l0 17.91 12.28 0c4.42,0 7.56,-0.71 9.39,-2.14 1.82,-1.44 2.74,-3.84 2.74,-7.18 0,-3.14 -0.86,-5.36 -2.59,-6.65 -1.72,-1.3 -4.9,-1.94 -9.54,-1.94l-12.28 0zm-7.04 -6.21l20.51 0c3.32,0 5.77,0.15 7.34,0.43 1.57,0.29 2.98,0.76 4.21,1.44 2.23,1.21 3.93,2.91 5.09,5.09 1.16,2.19 1.74,4.75 1.74,7.69 0,2.85 -0.61,5.28 -1.84,7.3 -1.21,2.03 -3.04,3.62 -5.45,4.76 2.06,0.57 3.53,1.56 4.4,2.91 0.87,1.37 1.42,3.68 1.63,6.93l0.61 8.73c0.12,1.86 0.37,3.26 0.74,4.17 0.36,0.92 0.91,1.59 1.66,1.97l0 1.47 -8.28 0c-0.68,-1.11 -1.14,-3.46 -1.41,-7.08l0 -0.21 -0.43 -6.89c-0.23,-3.55 -0.99,-5.85 -2.25,-6.9 -1.28,-1.06 -4.46,-1.58 -9.53,-1.58l-11.63 0 0 22.66 -7.11 0 0 -52.89z"/>
  <polygon class="fil1" points="49.85,0 99.71,89.63 79.09,89.63 49.85,37.08 30.65,71.61 61.68,71.61 71.7,89.63 0,89.63 "/>
 </g>
</svg>
