<svg width="33" height="30" viewBox="0 0 33 30" fill="none" xmlns="http://www.w3.org/2000/svg">
<path fill-rule="evenodd" clip-rule="evenodd" d="M28.9219 3.90619C28.5568 3.54833 28.0659 3.34788 27.5547 3.34788C27.0435 3.34788 26.5526 3.54833 26.1875 3.90619C26.1607 3.93149 26.1347 3.95754 26.1094 3.98432C23.3639 1.843 19.9818 0.680054 16.5 0.680054C13.0182 0.680054 9.63613 1.843 6.89063 3.98432C6.86533 3.95754 6.83928 3.93149 6.8125 3.90619C6.44741 3.54833 5.95655 3.34788 5.44531 3.34788C4.93408 3.34788 4.44322 3.54833 4.07813 3.90619C3.72026 4.27129 3.51981 4.76214 3.51981 5.27338C3.51981 5.78462 3.72026 6.27547 4.07813 6.64057C4.10343 6.66734 4.12948 6.69339 4.15625 6.71869C2.03402 9.45756 0.882355 12.8241 0.882355 16.289C0.882355 19.7539 2.03402 23.1204 4.15625 25.8593L4.07813 25.9374C3.8891 26.1196 3.73874 26.3381 3.63605 26.5797C3.53335 26.8213 3.48042 27.0812 3.48042 27.3437C3.48042 27.6062 3.53335 27.8661 3.63605 28.1077C3.73874 28.3493 3.8891 28.5677 4.07813 28.7499C4.44322 29.1078 4.93408 29.3083 5.44531 29.3083C5.95655 29.3083 6.44741 29.1078 6.8125 28.7499L8.21875 27.3437C8.57662 26.9786 8.77707 26.4877 8.77707 25.9765C8.77707 25.4653 8.57662 24.9744 8.21875 24.6093C6.02421 22.412 4.79156 19.4335 4.79156 16.3281C4.79156 13.2226 6.02421 10.2441 8.21875 8.04682C10.416 5.85228 13.3945 4.61963 16.5 4.61963C19.6055 4.61963 22.584 5.85228 24.7813 8.04682C26.9758 10.2441 28.2084 13.2226 28.2084 16.3281C28.2084 19.4335 26.9758 22.412 24.7813 24.6093C24.4234 24.9744 24.2229 25.4653 24.2229 25.9765C24.2229 26.4877 24.4234 26.9786 24.7813 27.3437L26.1875 28.7499C26.5526 29.1078 27.0435 29.3083 27.5547 29.3083C28.0659 29.3083 28.5568 29.1078 28.9219 28.7499C29.1109 28.5677 29.2613 28.3493 29.364 28.1077C29.4667 27.8661 29.5196 27.6062 29.5196 27.3437C29.5196 27.0812 29.4667 26.8213 29.364 26.5797C29.2613 26.3381 29.1109 26.1196 28.9219 25.9374L28.8438 25.8593C30.966 23.1204 32.1176 19.7539 32.1176 16.289C32.1176 12.8241 30.966 9.45756 28.8438 6.71869C28.8705 6.69339 28.8966 6.66734 28.9219 6.64057C29.2797 6.27547 29.4802 5.78462 29.4802 5.27338C29.4802 4.76214 29.2797 4.27129 28.9219 3.90619ZM20.0938 7.03119C19.8392 6.76399 19.5141 6.57438 19.1563 6.48432C18.9049 6.41384 18.6419 6.39448 18.3829 6.42738C18.1239 6.46029 17.8741 6.54479 17.6483 6.67589C17.4225 6.807 17.2253 6.98204 17.0683 7.19067C16.9113 7.39931 16.7978 7.63729 16.7344 7.89057L15.4844 12.4999C14.8211 12.686 14.2188 13.0441 13.7386 13.5381C13.2583 14.032 12.9173 14.6442 12.75 15.3124C12.4865 16.3068 12.6258 17.365 13.1377 18.2572C13.6497 19.1495 14.4929 19.8038 15.4844 20.0781C16.4787 20.3416 17.5369 20.2023 18.4292 19.6903C19.3214 19.1784 19.9757 18.3351 20.25 17.3437C20.4373 16.673 20.4419 15.9644 20.2633 15.2914C20.0848 14.6183 19.7295 14.0052 19.2344 13.5156L20.4844 8.90619C20.5858 8.58642 20.6031 8.24593 20.5347 7.91752C20.4662 7.58912 20.3144 7.28387 20.0938 7.03119Z" fill="#222222"/>
</svg>
