<svg width="43" height="22" viewBox="0 0 43 22" fill="none" xmlns="http://www.w3.org/2000/svg">
<path d="M17.6914 0.257812V0.355469H17.1054L16.6172 0.550781L15.9336 1.13672L15.5429 1.72266L15.3476 1.91797V2.01562L6.2656 2.11328C4.41013 2.11328 2.55467 3.08984 1.5781 4.65234C1.18748 5.14062 0.894509 5.72656 0.796853 6.3125C0.0156026 8.26562 0.308571 10.4141 0.308571 12.3672C0.210915 14.0273 0.60154 15.5898 1.28513 17.0547C2.16404 18.4219 3.43357 19.5938 4.99607 19.7891C7.24217 20.2773 9.58591 19.9844 11.9297 20.082H15.3476L15.5429 20.375L15.9336 20.9609L16.6172 21.5469L17.1054 21.7422H17.789V21.4492C17.6753 21.0708 17.5111 20.7095 17.3008 20.375C17.2711 20.2764 17.2386 20.1787 17.2031 20.082H21.6953L21.8906 20.2773H22.2812C22.8358 20.2696 23.3897 20.237 23.9414 20.1797L24.039 20.082H31.3633C31.8839 20.1039 32.4052 20.1039 32.9258 20.082L38.5898 19.9844C39.957 19.9844 41.2265 19.2031 41.7148 17.9336C42.789 15.1016 42.789 11.9766 42.6914 9.04688C42.4961 7.09375 42.3008 5.04297 41.2265 3.38281C40.25 2.01562 38.4922 2.01562 36.9297 2.01562H32.8281C32.7323 1.97777 32.6345 1.94517 32.5351 1.91797H30.9726L25.6992 2.01562H24.039L23.9414 1.82031H21.8906C21.8175 1.83364 21.7498 1.86751 21.6953 1.91797C21.687 1.95 21.687 1.9836 21.6953 2.01562H17.2031C17.3608 1.73567 17.4916 1.44139 17.5937 1.13672L17.789 0.648438V0.355469L17.6914 0.257812ZM22.8672 2.01562H23.0625H22.7695H22.8672ZM38.5898 2.69922C38.9804 2.69922 39.4687 2.69922 39.664 2.89453C40.25 3.1875 40.6406 3.57812 40.7383 4.26172L40.9336 4.94531C41.2265 5.43359 41.4219 6.11719 41.4219 6.3125V6.50781L41.2265 6.41016L40.8359 5.72656C40.1523 4.26172 39.2734 3.48047 37.9062 2.99219V2.79688L38.5898 2.69922ZM17.6914 2.79688H18.082L22.8672 2.89453H24.1367L24.625 3.67578L25.2109 4.65234L24.8203 4.75C22.698 4.63134 20.5808 4.4359 18.4726 4.16406L17.8867 4.06641L17.789 3.77344C17.5718 3.4406 17.3438 3.11491 17.1054 2.79688H17.6914ZM5.19138 2.89453H5.58201C6.9492 2.89453 7.24216 2.99219 6.65623 3.38281L3.53123 5.23828C2.84763 5.62891 2.65232 5.82422 2.2617 6.3125L1.87107 6.70312C1.67576 6.80078 1.38279 6.89844 1.28513 6.80078V6.41016C1.28513 6.01953 1.38279 5.72656 1.77342 5.04297C2.16404 4.55469 2.74998 3.77344 3.1406 3.48047L4.01951 3.08984C4.50779 2.89453 4.50779 2.89453 5.19138 2.89453ZM26.4804 2.89453L27.2617 2.99219L32.7304 3.08984L32.9258 4.16406C32.9258 4.55469 32.9258 4.55469 31.7539 4.55469L27.0664 4.75L26.5781 3.87109L26.1875 2.99219L26.4804 2.89453ZM34.6836 3.38281H34.9765L36.539 3.67578C36.6367 3.67578 36.0508 3.96875 35.2695 4.06641C34.6836 4.26172 34.5859 4.26172 34.4883 4.16406C34.2929 4.06641 34.2929 3.96875 34.3906 3.67578C34.4883 3.48047 34.4883 3.38281 34.6836 3.38281ZM11.4414 3.77344C14.3579 4.44497 17.2561 5.19394 20.1328 6.01953C21.8906 6.70312 22.7695 6.89844 23.6484 6.89844C24.2344 6.89844 24.332 6.89844 24.8203 7.48438L25.4062 8.07031V14.0273L24.8203 14.6133L24.332 15.1992H23.2578L21.1094 15.6875C18.8633 16.5664 17.3984 17.0547 14.664 17.6406L11.6367 18.2266C11.4414 18.3242 11.3437 18.2266 11.1484 17.8359C10.8554 17.3477 10.1719 15.3945 10.0742 14.5156C9.58591 12.5625 9.68357 9.04688 10.0742 7.28906C10.4648 5.72656 11.2461 3.77344 11.4414 3.77344ZM39.2734 4.35938C39.5664 4.35938 39.664 4.65234 40.0547 5.33594C41.0312 7.19141 41.3242 8.75391 41.2265 11.6836C41.1289 13.9297 40.9336 14.8086 40.1523 16.4688C39.4687 17.8359 39.4687 17.9336 38.3945 17.4453C37.695 17.0844 36.978 16.7584 36.2461 16.4688L36.6367 15.5898C37.3203 14.125 37.6133 12.9531 37.6133 11C37.6133 8.94922 37.3203 7.97266 36.6367 6.50781L36.2461 5.62891L37.8086 4.94531C38.5898 4.55469 38.9804 4.35938 39.2734 4.35938ZM1.48045 15.1992H1.5781C1.96873 15.2969 2.06638 15.3945 2.35935 15.7852C2.65232 16.2734 2.84763 16.4688 3.72654 16.957L6.9492 18.9102C7.04685 19.1055 6.85154 19.2031 5.67967 19.2031L4.21482 19.1055C3.33592 18.7148 2.55467 18.1289 1.87107 17.1523C1.38279 16.3711 1.28513 16.0781 1.28513 15.6875C1.28513 15.3945 1.28513 15.1992 1.48045 15.1992ZM41.4219 15.4922V15.6875L41.0312 17.0547L40.7383 17.8359C40.5429 18.8125 39.7617 19.3984 38.7851 19.3984L38.1992 19.3008L37.9062 19.2031L38.0039 19.1055C38.7851 18.8125 39.1758 18.5195 39.5664 18.1289C40.1523 17.6406 40.4453 17.1523 40.8359 16.3711L41.2265 15.6875L41.4219 15.4922ZM26.9687 17.3477H27.8476C29.5096 17.4112 31.1701 17.5089 32.8281 17.6406V18.5195L32.7304 18.9102H32.5351C30.4207 19.0161 28.3044 19.0812 26.1875 19.1055L26.5781 18.2266L26.9687 17.3477ZM24.4297 17.3477L25.2109 17.4453L24.1367 19.1055L18.2773 19.3008H17.1054L17.2031 19.0078C17.4746 18.6913 17.7352 18.3656 17.9844 18.0312C20.1144 17.6546 22.268 17.4262 24.4297 17.3477ZM34.6836 17.9336L35.4648 18.0312C36.3437 18.2266 36.7344 18.4219 36.4414 18.4219L34.9765 18.6172H34.4883L34.3906 18.5195L34.2929 18.2266C34.2929 18.0312 34.3906 17.9336 34.6836 17.9336Z" fill="#222222"/>
</svg>
