<svg width="30" height="30" viewBox="0 0 30 30" fill="none" xmlns="http://www.w3.org/2000/svg">
<path d="M15 0.416626C6.25002 0.416626 0.416687 6.24996 0.416687 15V20.8333L3.33335 23.75H4.79169C5.17846 23.75 5.54939 23.5963 5.82288 23.3228C6.09637 23.0493 6.25002 22.6784 6.25002 22.2916V15C6.25002 14.6132 6.09637 14.2423 5.82288 13.9688C5.54939 13.6953 5.17846 13.5416 4.79169 13.5416H3.33335C3.33335 10.4474 4.56252 7.47997 6.75044 5.29205C8.93837 3.10412 11.9058 1.87496 15 1.87496C18.0942 1.87496 21.0617 3.10412 23.2496 5.29205C25.4375 7.47997 26.6667 10.4474 26.6667 13.5416H25.2084C24.8216 13.5416 24.4506 13.6953 24.1772 13.9688C23.9037 14.2423 23.75 14.6132 23.75 15V23.75L20.8334 26.6666H17.9167V25.2083H12.0834V29.5833H20.8334C23.75 29.5833 26.6667 26.6666 26.6667 23.75L29.5834 20.8333V15C29.5834 6.24996 23.75 0.416626 15 0.416626Z" fill="black"/>
</svg>
